**ABCDEFGHIJKLMNOPQRSTUVWXYZabcdefghijklmnopqrstuvwxyz**************************
**PARASOLID !"#$%&'()*+,-./:;<=>?@[\]^_`{|}~0123456789**************************
**PART1;
MC=AMD64;
MC_MODEL=Intel64 Family 6 Model 151 Stepping 2, GenuineIntel;
MC_ID=unknown;
OS=Windows_NT;
OS_RELEASE=unknown;
FRU=Parasolid Version 35.1, build 210,  4-20-2023;
APPL=SOLIDWORKS 2024-2023282;
SITE=;
USER=unknown;
FORMAT=text;
GUISE=transmit;
KEY=makeProjectedPlanarWire;
FILE=makeProjectedPlanarWire.x_t;
DATE=Tue Nov 12 21:56:21 2024;
**PART2;
SCH=SCH_3501210_35102;
USFLD_SIZE=0;
**PART3;
**END_OF_HEADER*****************************************************************
T51 : TRANSMIT FILE created by modeller version 350121023 SCH_3501210_35102_1300
6231 0 12 36 CCCI7 lattice222 0 CCCI4 mesh1006 0 I8 polyline1008 0 CCCCCCCDI5 ow
ner1040 0 CCCI16 boundary_lattice222 0 CCCI13 boundary_mesh1006 0 I17 boundary_p
olyline1008 0 CCCA16 index_map_offset0 0 1 dA9 index_map82 0 A17 node_id_index_m
ap82 0 A20 schema_embedding_map82 0 A5 child12 0 A14 lowest_node_id0 0 1 dA16 me
sh_offset_data206 0 Z1 121 2 3 0 0 0 0 0 0 0 1e3 1e-8 0 4 0 1 0 3 1 5 0 6 7 8 0
 0 9 10 11 0 0 0 0 0 0 0 81 255 2 2 108 12 1 0 0 0 0 13 0 70 11 CI9 list_type0 0
 1 uI10 notransmit0 0 1 lCCCDCCDI12 finger_index0 0 1 dI12 finger_block1012 0 CZ
3 0 4 T1 0 0 2 20 1 14 14 13 255 5 114 0 1 0 15 0 0 9 15 50 255 6 3 0 15 0 0 0 +
0 0 -.0707 0 0 1 1 0 0 31 255 7 76 0 10 16 0 0 +-.0737571397446544 .010897902568
55116 -.0707 0 0 -1 -1 0 0 .00195 29 255 8 106 0 11 17 0 .0673834127832631 .0067
9580513710227 -.0707 19 9 CCCCCCI5 frame230 0 CA5 owner12 0 Z9 113 0 1 0 0 5 0 V
0 16 255 10 74 0 ?18 0 19 7 0 0 1 18 255 11 104 0 20 0 21 8 ?1 17 255 20 0 0 0 0
 11 22 23 0 24 +18 21 101 0 25 11 26 17 ?1 17 25 0 27 24 28 21 29 30 0 31 +18 26
 98 0 28 21 32 33 ?1 29 17 103 0 21 33 8 .0216508238163359 .0233010073763013 -.0
707 29 33 100 0 26 34 17 -.02165082381633595 .0233010073763013 -.0707 29 34 97 0
 32 35 33 -.0673834127832632 .0067958051371023 -.0707 18 32 95 0 36 26 37 34 ?1
 29 35 94 0 37 38 34 -.0794139860812216 .00679580513710228 -.0707 18 37 92 0 39
 32 40 35 ?1 29 38 91 0 40 41 35 -.08 .015 -.0707 18 40 89 0 42 37 43 38 ?1 29 4
1 88 0 43 44 38 -.02375 .0353010073763013 -.0707 18 43 86 0 45 40 46 41 ?1 29 44
 85 0 46 47 41 .02375 .0353010073763013 -.0707 18 46 83 0 48 43 49 44 ?1 29 47 8
2 0 49 50 44 .08 .015 -.0707 18 49 80 0 51 46 52 47 ?1 29 50 79 0 52 0 47 .07941
39860812216 .00679580513710226 -.0707 18 52 77 0 22 49 0 50 ?1 17 22 0 27 51 24
 52 20 23 0 53 -15 255 27 8 0 22 15 54 17 51 0 27 48 22 49 53 55 0 56 -17 24 0 2
7 22 25 11 31 57 0 0 +16 23 18 0 ?20 55 0 58 0 0 1 17 53 0 0 0 0 52 51 55 0 0 +1
6 55 22 0 ?53 59 23 60 0 0 1 16 59 25 0 ?56 61 55 62 0 0 1 30 255 60 24 0 55 58
 62 0 +.0757124704998791 -.0450254130016927 -.0707 -.0712470499879096 -.99745869
9830735 0 30 58 20 0 23 0 60 0 +-9799069767935e-31 .00679580513710226 -.0707 -1
 -14419291857614e-29 0 30 62 27 0 59 60 63 0 +.02375 .0353010073763013 -.0707 .9
40615277052338 -.339474447603577 0 30 63 30 0 61 62 64 0 +-.02375 .0353010073763
013 -.0707 1 0 0 16 61 28 0 ?65 66 59 63 0 0 1 30 64 33 0 66 63 67 0 +-.08 .015
 -.0707 .940615277052338 .3394744476035765 0 16 66 31 0 ?68 69 61 64 0 0 1 30 67
 36 0 69 64 70 0 +-.0757124704998791 -.0450254130016926 -.0707 -.071247049987909
8 .997458699830735 0 16 69 34 0 ?71 72 66 67 0 0 1 30 70 39 0 72 67 73 0 +-58794
4186076108e-32 .00679580513710236 -.0707 1 86515751145684e-29 0 16 72 37 0 ?36 7
4 69 70 0 0 1 30 73 43 0 74 70 75 0 +-.0673834127832632 .0067958051371023 -.0707
 .940615277052338 .3394744476035765 0 16 74 41 0 ?28 30 72 73 0 0 1 30 75 46 0 3
0 73 76 0 +-.02165082381633595 .0233010073763013 -.0707 1 0 0 16 30 44 0 ?25 57
 74 75 0 0 1 30 76 49 0 57 75 77 0 +.0216508238163359 .0233010073763013 -.0707 .
940615277052338 -.339474447603577 0 16 57 47 0 ?24 78 30 76 0 0 1 31 77 52 0 78
 76 79 0 +.0736262730386088 .01089790256855116 -.0707 0 0 -1 -1 0 0 .00195 16 78
 50 0 ?80 81 57 77 0 0 1 31 79 55 0 81 77 82 0 +693889390390723e-32 .02930100737
63012 -.0707 0 0 -1 -1 0 0 .00195 16 81 53 0 ?83 84 78 79 0 0 1 31 82 58 0 84 79
 85 0 +.01193456664697718 .0293010073763012 -.0707 0 0 -1 -1 0 0 .00195 16 84 56
 0 ?86 87 81 82 0 0 1 31 85 61 0 87 82 88 0 +.0367442077109302 .0242088906622476
 -.0707 0 0 -1 -1 0 0 .00195 16 87 59 0 ?89 90 84 85 0 0 1 31 88 64 0 90 85 91 0
 +.0595170438828237 .0159900192826048 -.0707 0 0 -1 -1 0 0 .00195 16 90 62 0 ?92
 93 87 88 0 0 1 31 91 67 0 93 88 94 0 +-.03687507441697585 .02420889066224755 -.
0707 0 0 -1 -1 0 0 .00195 16 93 65 0 ?95 96 90 91 0 0 1 31 94 70 0 96 91 16 0 +-
.0120654333530228 .0293010073763012 -.0707 0 0 -1 -1 0 0 .00195 16 96 68 0 ?97 1
9 93 94 0 0 1 31 16 73 0 19 94 7 0 +-.0596479105888693 .01599001928260475 -.0707
 0 0 -1 -1 0 0 .00195 16 19 71 0 ?98 10 96 16 0 0 1 17 98 0 99 98 98 0 100 19 0
 0 +15 99 16 0 98 15 101 17 100 0 0 0 0 0 98 19 0 0 -14 255 15 1 102 ?0 0 27 5 6
 +0 0 0 0 5 15 101 17 0 18 15 0 17 18 0 101 18 18 0 103 10 0 0 +17 103 0 0 0 0 0
 18 10 0 0 -81 1 102 121 104 15 0 0 0 0 105 80 7 CCCCCDI12 legal_owners0 16 1 lC
Z1 104 106 107 9000 1 1 1 1 1 1 1 1 0 FFFFTFTFFFFFFFFF1 82 255 1 105 224332623 7
9 255 14 107 SWEntUnchanged17 97 0 108 97 97 0 109 96 0 0 +15 108 15 0 97 15 99
 17 109 0 0 0 0 0 97 96 0 0 -17 95 0 110 95 95 0 111 93 0 0 +15 110 14 0 95 15 1
08 17 111 0 0 0 0 0 95 93 0 0 -17 92 0 112 92 92 0 113 90 0 0 +15 112 13 0 92 15
 110 17 113 0 0 0 0 0 92 90 0 0 -17 89 0 114 89 89 0 115 87 0 0 +15 114 12 0 89
 15 112 17 115 0 0 0 0 0 89 87 0 0 -17 86 0 116 86 86 0 117 84 0 0 +15 116 11 0
 86 15 114 17 117 0 0 0 0 0 86 84 0 0 -17 83 0 118 83 83 0 119 81 0 0 +15 118 10
 0 83 15 116 17 119 0 0 0 0 0 83 81 0 0 -17 80 0 54 80 80 0 120 78 0 0 +15 54 9
 0 80 15 118 17 120 0 0 0 0 0 80 78 0 0 -17 28 0 27 25 36 26 121 74 0 29 +17 36
 0 27 28 39 32 122 72 0 121 +17 121 0 0 0 0 32 28 74 0 0 -17 29 0 0 0 0 26 25 30
 0 0 -17 39 0 27 36 42 37 71 69 0 122 -17 122 0 0 0 0 37 36 72 0 0 -17 42 0 27 3
9 45 40 68 66 0 71 -17 71 0 0 0 0 40 39 69 0 0 +17 45 0 27 42 48 43 65 61 0 68 -
17 68 0 0 0 0 43 42 66 0 0 +17 48 0 27 45 51 46 56 59 0 65 -17 65 0 0 0 0 46 45
 61 0 0 +17 56 0 0 0 0 49 48 59 0 0 +17 31 0 0 0 0 21 24 57 0 0 -74 4 CI16 index
_map_offset0 0 1 dCCZ20 14 2 0 0 2 102 0 0 0 0 0 0 0 0 0 0 0 0 0 0 0 0 0 0 80 2
 12 123 124 9000 0 0 0 0 3 5 0 0 0 FFTFTTTFFTFFFFFF10 10 98 255 11 13 83 112 108
 105 116 32 76 105 110 101 49 79 23 124 SWIMPLICITBODYNAME_ID_U1 0 
