**ABCDEFGHIJKLMNOPQRSTUVWXYZabcdefghijklmnopqrstuvwxyz**************************
**PARASOLID !"#$%&'()*+,-./:;<=>?@[\]^_`{|}~0123456789**************************
**PART1;
MC=AMD64;
MC_MODEL=Intel64 Family 6 Model 151 Stepping 2, GenuineIntel;
MC_ID=unknown;
OS=Windows_NT;
OS_RELEASE=unknown;
FRU=Parasolid Version 35.1, build 210,  4-20-2023;
APPL=SOLIDWORKS 2024-2023282;
SITE=;
USER=unknown;
FORMAT=text;
GUISE=transmit;
KEY=makeProjectedPlanarWire;
FILE=makeProjectedPlanarWire.x_t;
DATE=Sun Nov 17 16:21:39 2024;
**PART2;
SCH=SCH_3501210_35102;
USFLD_SIZE=0;
**PART3;
**END_OF_HEADER*****************************************************************
T51 : TRANSMIT FILE created by modeller version 350121023 SCH_3501210_35102_1300
6231 0 12 36 CCCI7 lattice222 0 CCCI4 mesh1006 0 I8 polyline1008 0 CCCCCCCDI5 ow
ner1040 0 CCCI16 boundary_lattice222 0 CCCI13 boundary_mesh1006 0 I17 boundary_p
olyline1008 0 CCCA16 index_map_offset0 0 1 dA9 index_map82 0 A17 node_id_index_m
ap82 0 A20 schema_embedding_map82 0 A5 child12 0 A14 lowest_node_id0 0 1 dA16 me
sh_offset_data206 0 Z1 113 2 3 0 0 0 0 0 0 0 1e3 1e-8 0 4 0 1 0 3 1 5 0 6 7 8 0
 0 9 10 11 0 0 0 0 0 0 0 81 255 2 2 103 12 1 0 0 0 0 13 0 70 11 CI9 list_type0 0
 1 uI10 notransmit0 0 1 lCCCDCCDI12 finger_index0 0 1 dI12 finger_block1012 0 CZ
3 0 4 T1 0 0 2 20 1 14 14 13 255 5 109 0 1 0 15 0 0 9 15 50 255 6 3 0 15 0 0 0 +
0 0 .0807 0 0 -1 -1 0 0 31 255 7 65 0 10 16 0 0 +-.045 .036996033378426 .0807 0
 0 1 1 0 0 .00175 29 255 8 101 0 11 17 0 -.0678317375090563 .0173631452013418 .0
807 19 9 CCCCCCI5 frame230 0 CA5 owner12 0 Z9 108 0 1 0 0 5 0 V0 16 255 10 63 0
 ?18 0 19 7 0 0 1 18 255 11 99 0 20 0 21 8 ?1 17 255 20 0 0 0 0 11 22 23 0 24 -1
8 21 96 0 25 11 26 17 ?1 17 25 0 27 24 28 21 29 30 0 31 +18 26 93 0 28 21 32 33
 ?1 29 17 98 0 21 33 8 -.0507906272877014 .0309960333784261 .0807 29 33 95 0 26
 34 17 .0507906272877014 .0309960333784261 .0807 29 34 92 0 32 35 33 .0678317375
090563 .0173631452013418 .0807 18 32 90 0 36 26 37 34 ?1 29 35 89 0 37 38 34 .06
78317375090563 .01499603337842602 .0807 18 37 87 0 39 32 40 35 ?1 29 38 86 0 40
 41 35 .079768182196558 .01499603337842602 .0807 18 40 84 0 42 37 43 38 ?1 29 41
 83 0 43 44 38 .08 .02299603337842605 .0807 18 43 81 0 45 40 46 41 ?1 29 44 80 0
 46 47 41 .055 .04299603337842605 .0807 18 46 78 0 48 43 49 44 ?1 29 47 77 0 49
 50 44 -.055 .042996033378426 .0807 18 49 75 0 51 46 52 47 ?1 29 50 74 0 52 53 4
7 -.08 .022996033378426 .0807 18 52 72 0 54 49 55 50 ?1 29 53 71 0 55 56 50 -.07
9768182196558 .014996033378426 .0807 18 55 69 0 57 52 58 53 ?1 29 56 68 0 58 0 5
3 -.0678317375090563 .014996033378426 .0807 18 58 66 0 22 55 0 56 ?1 17 22 0 27
 57 24 58 20 23 0 59 +15 255 27 7 0 22 15 60 17 57 0 27 54 22 55 59 61 0 62 +17
 24 0 27 22 25 11 31 63 0 0 +16 23 14 0 ?22 61 0 64 0 0 1 17 59 0 0 0 0 58 57 61
 0 0 -16 61 17 0 ?57 65 23 66 67 67 1 16 65 20 0 ?62 68 61 69 0 0 1 30 255 66 19
 0 61 64 69 0 +.1216565865030108 .01499603337842602 .0807 -1 -114073460440804e-3
0 0 16 67 35 0 ?39 70 71 66 61 61 1 17 39 0 27 36 42 37 72 67 0 73 +16 70 36 0 ?
36 74 67 75 0 0 1 16 71 32 0 ?76 67 77 78 0 0 1 17 76 0 0 0 0 43 42 71 0 0 +16 7
7 29 0 ?79 71 80 81 0 0 1 30 78 34 0 71 81 75 0 +.08 .02299603337842605 .0807 .0
289650672939704 .999580424416493 0 30 81 31 0 77 82 78 0 +.08 .02299603337842605
 .0807 -.780868809443029 .624695047554425 0 30 75 38 0 70 78 83 0 +.067831737509
0563 .0173631452013418 .0807 0 1 0 30 83 41 0 74 75 84 0 +.0678317375090563 .017
3631452013418 .0807 -.780868809443023 .624695047554434 0 16 74 39 0 ?28 30 70 83
 0 0 1 30 84 44 0 30 83 85 0 +-.0507906272877014 .0309960333784261 .0807 -1 -273
2352118670305e-31 0 16 30 42 0 ?25 63 74 84 0 0 1 30 85 47 0 63 84 86 0 +-.06783
17375090563 .0173631452013418 .0807 -.780868809443022 -.624695047554434 0 16 63
 45 0 ?24 87 30 85 0 0 1 31 86 50 0 87 85 88 0 +.045 .03699603337842605 .0807 0
 0 1 -1 0 0 .00175 16 87 48 0 ?89 90 63 86 0 0 1 31 88 53 0 90 86 91 0 +-.064608
3457854962 .02762560766510965 .0807 0 0 1 1 0 0 .00175 16 90 51 0 ?92 93 87 88 0
 0 1 31 91 56 0 93 88 94 0 +.015 .036996033378426 .0807 0 0 1 -1 0 0 .00175 16 9
3 54 0 ?95 96 90 91 0 0 1 31 94 59 0 96 91 16 0 +.0646083457854961 .027625607665
1097 .0807 0 0 1 -1 0 0 .00175 16 96 57 0 ?97 19 93 94 0 0 1 31 16 62 0 19 94 7
 0 +-.015 .036996033378426 .0807 0 0 1 1 0 0 .00175 16 19 60 0 ?98 10 96 16 0 0
 1 17 98 0 99 98 98 0 100 19 0 0 +15 99 12 0 98 15 101 17 100 0 0 0 0 0 98 19 0
 0 -14 255 15 1 102 ?0 0 27 5 6 +0 0 0 0 5 15 101 13 0 18 15 0 17 18 0 101 18 18
 0 103 10 0 0 +17 103 0 0 0 0 0 18 10 0 0 -81 1 102 113 104 15 0 0 0 0 105 80 7
 CCCCCDI12 legal_owners0 16 1 lCZ1 104 106 107 9000 1 1 1 1 1 1 1 1 0 FFFFTFTFFF
FFFFFF1 82 255 1 105 -2123758582 79 255 14 107 SWEntUnchanged17 97 0 108 97 97 0
 109 96 0 0 +15 108 11 0 97 15 99 17 109 0 0 0 0 0 97 96 0 0 -17 95 0 110 95 95
 0 111 93 0 0 +15 110 10 0 95 15 108 17 111 0 0 0 0 0 95 93 0 0 -17 92 0 112 92
 92 0 113 90 0 0 +15 112 9 0 92 15 110 17 113 0 0 0 0 0 92 90 0 0 -17 89 0 60 89
 89 0 114 87 0 0 +15 60 8 0 89 15 112 17 114 0 0 0 0 0 89 87 0 0 -17 28 0 27 25
 36 26 115 74 0 29 +17 36 0 27 28 39 32 73 70 0 115 +17 115 0 0 0 0 32 28 74 0 0
 -17 29 0 0 0 0 26 25 30 0 0 -17 73 0 0 0 0 37 36 70 0 0 -30 82 28 0 80 116 81 0
 +-.055 .042996033378426 .0807 -1 -2523234146875355e-31 0 16 80 26 0 ?117 77 68
 82 0 0 1 30 116 25 0 68 69 82 0 +-.08 .022996033378426 .0807 -.780868809443029
 -.624695047554426 0 16 68 23 0 ?118 80 65 116 0 0 1 30 69 22 0 65 66 116 0 +-.0
8 .022996033378426 .0807 .02896506729397115 -.999580424416493 0 17 118 0 0 0 0 5
2 51 68 0 0 +17 51 0 27 48 54 49 118 68 0 117 -17 48 0 27 45 51 46 117 80 0 79 -
17 54 0 27 51 57 52 62 65 0 118 -17 117 0 0 0 0 49 48 80 0 0 +17 62 0 0 0 0 55 5
4 65 0 0 +17 45 0 27 42 48 43 79 77 0 76 -17 79 0 0 0 0 46 45 77 0 0 +17 42 0 27
 39 45 40 76 71 0 72 -17 72 0 0 0 0 40 39 67 0 0 -30 64 16 0 23 0 66 0 +-.067831
7375090563 .0173631452013418 .0807 0 -1 0 17 31 0 0 0 0 21 24 63 0 0 -74 4 CI16
 index_map_offset0 0 1 dCCZ20 14 2 0 0 2 102 0 0 0 0 0 0 0 0 0 0 0 0 0 0 0 0 0 0
 80 2 12 119 120 9000 0 0 0 0 3 5 0 0 0 FFTFTTTFFTFFFFFF10 10 98 255 12 13 67 11
7 116 45 69 120 116 114 117 100 101 50 79 23 120 SWIMPLICITBODYNAME_ID_U1 0 
